<?xml version="1.0" encoding="utf-8"?>
<!DOCTYPE svg PUBLIC "-//W3C//DTD SVG 1.1//EN" "http://www.w3.org/Graphics/SVG/1.1/DTD/svg11.dtd">
<svg xmlns="http://www.w3.org/2000/svg" xmlns:xlink="http://www.w3.org/1999/xlink" version="1.1" baseProfile="full" width="24" height="24" viewBox="0 0 24.00 24.00" enable-background="new 0 0 24.00 24.00" xml:space="preserve"><path
    fill="#000000" fill-opacity="1" stroke-width="0.2" stroke-linejoin="miter"
     d="m 8,8 c 2.666667,0 5.333333,0 8,0 0,2.666667 0,5.333333 0,8 -2.666667,0 -5.333333,0 -8,0 0,-2.666667 0,-5.333333 0,-8 z M 2,8 c 1.333333,0 2.666666,0 3.999999,0 0,4.666667 0,9.333333 0,14 C 4.666666,22 3.333333,22 2,22 2,17.333333 2,12.666667 2,8 Z m 4,10 c 3.3333334,0 6.666666,0 10,0 0,1.333333 0,2.666667 0,4 -3.333334,0 -6.6666666,0 -10,0 0,-1.333333 0,-2.666667 0,-4 z M 18,6 c 1.333333,0 2.666666,0 3.999999,0 0,3.3333333 0,6.666667 0,10 C 20.666666,16 19.333333,16 18,16 18,12.666667 18,9.3333333 18,6 Z M 8,2 c 4.666667,0 9.333333,0 14,0 0,1.3333333 0,2.6666667 0,4 C 17.333333,6 12.666667,6 8,6 8,4.6666667 8,3.3333333 8,2 Z" /></svg>
